<svg id="baseline-favorite_border-24px" xmlns="http://www.w3.org/2000/svg" width="27.442" height="27.442" viewBox="0 0 27.442 27.442">
  <path id="Path_264" data-name="Path 264" d="M0,0H27.442V27.442H0Z" fill="none"/>
  <g id="Layer_1" data-name="Layer 1" transform="translate(4.574 1.39)">
    <path id="Path_2267" data-name="Path 2267" d="M17.136,4a3.25,3.25,0,0,0-3.429,3.048V9.333H10.279a.762.762,0,0,0-.762.682L7.993,24.492a.762.762,0,0,0,.762.842H25.517a.762.762,0,0,0,.762-.842L24.755,10.015a.762.762,0,0,0-.762-.682H20.565V7.048A3.25,3.25,0,0,0,17.136,4Zm-1.9,3.048a1.747,1.747,0,0,1,1.9-1.524,1.747,1.747,0,0,1,1.9,1.524V9.333h-3.81Zm8.076,3.81L24.671,23.81H9.6l1.364-12.953h2.743v1.524a.762.762,0,0,0,1.524,0V10.857h3.81v1.524a.762.762,0,1,0,1.524,0V10.857Z" transform="translate(-7.989 -4)" fill="#405c74"/>
  </g>
</svg>
