<svg id="customer-service" xmlns="http://www.w3.org/2000/svg" width="56" height="56" viewBox="0 0 56 56">
  <path id="Path_2756" data-name="Path 2756" d="M314.824,113.213v2.238c0,1.633,2.552.147,3.135-.1a10.621,10.621,0,1,0-3.135-2.138Zm7.451-16.561a9,9,0,1,1-3.944,17.081.813.813,0,0,0-.673-.018l-1.21.511v-1.361a.812.812,0,0,0-.262-.6A9.015,9.015,0,0,1,322.276,96.652Z" transform="translate(-277.264 -84.545)" fill="#e4ac8f"/>
  <path id="Path_2757" data-name="Path 2757" d="M379.421,145.7a.812.812,0,0,0,.812-.812,1.777,1.777,0,0,1,1.773-1.736,1.736,1.736,0,0,1-.036,3.472.812.812,0,0,0-.812.812V150.1a.812.812,0,0,0,1.625,0V148.15a3.36,3.36,0,1,0-4.173-3.26A.812.812,0,0,0,379.421,145.7Z" transform="translate(-336.959 -125.99)" fill="#405c74"/>
  <path id="Path_2758" data-name="Path 2758" d="M403.182,236.2a.813.813,0,0,0,0,1.625A.813.813,0,0,0,403.182,236.2Z" transform="translate(-358.295 -210.319)" fill="#405c74"/>
  <path id="Path_2759" data-name="Path 2759" d="M48.5,388.111H42.287a.812.812,0,0,0-.812.812v3.114a.812.812,0,0,0,.812.812H48.5a.812.812,0,0,0,.812-.812v-3.114A.812.812,0,0,0,48.5,388.111Zm-.812,3.114H43.1v-1.49h4.593Z" transform="translate(-36.996 -345.552)" fill="#e4ac8f"/>
  <path id="Path_2760" data-name="Path 2760" d="M55.561,36.164a2.431,2.431,0,0,0-1.882-.888H30.355a2.921,2.921,0,0,0-.959.162,16.075,16.075,0,0,0-3.568-3.666h5.393a.822.822,0,0,0,.822-.822V15.741C32.185,4.33,19.615-3.474,9.358,1.558a.822.822,0,0,0,.705,1.484c9.193-4.507,20.462,2.475,20.336,12.7,0,0,0,14.387,0,14.387H24.657a10.7,10.7,0,0,0,2.363-4.215q.2.019.4.025a2.956,2.956,0,0,0,2.953-2.952V20.306a2.957,2.957,0,0,0-2.14-2.838,12.155,12.155,0,1,0-24.182,0A2.962,2.962,0,0,0,1.96,19.777l.026-4.036A14.043,14.043,0,0,1,6.661,5.306a.822.822,0,0,0-1.1-1.223A15.685,15.685,0,0,0,.342,15.736V30.945c.044.5.222.779.725.827h5.49A16.012,16.012,0,0,0,.117,44.533v2.288a.822.822,0,0,0,1.644,0V44.533a14.32,14.32,0,0,1,4.119-10l5.758,3.937a.825.825,0,0,0,1.082-.137l2.668-3.045V46.821a.822.822,0,0,0,1.644,0V35.286L19.7,38.331a.825.825,0,0,0,1.082.137l5.737-3.923a14.407,14.407,0,0,1,1.535,1.843,2.92,2.92,0,0,0-.581,1.259L24.82,51.225H13.982a.822.822,0,0,0-.822.822v1.416A2.541,2.541,0,0,0,15.7,56H50.17a2.941,2.941,0,0,0,2.881-2.372l.475-2.427a.822.822,0,0,0-1.613-.315l-.475,2.427a1.294,1.294,0,0,1-1.268,1.044H26.847a.8.8,0,0,1-.78-.946l3.02-15.448a1.294,1.294,0,0,1,1.268-1.044H53.678a.8.8,0,0,1,.78.947l-1.707,8.729a.822.822,0,0,0,1.613.315l1.707-8.729a2.428,2.428,0,0,0-.511-2.017ZM16.21,32.279h0a9.611,9.611,0,0,1-9.294-7.148,2.943,2.943,0,0,0,.926-2.144V20.325c2.644-.007,8.107-.681,10.941-5.743A11.653,11.653,0,0,0,24.5,19.8c-.085.3-.029,2.83-.044,3.192a2.946,2.946,0,0,0,1.033,2.241l-.006.021a5.932,5.932,0,0,1-4.768,2.386H19.159a2.783,2.783,0,1,0-.062,1.643H20.71a7.617,7.617,0,0,0,3.048-.634,9.713,9.713,0,0,1-7.547,3.635Zm.262-2.8a1.14,1.14,0,1,1,1.14-1.122,1.132,1.132,0,0,1-1.14,1.122Zm12.259-9.174v2.681A1.31,1.31,0,0,1,27.422,24.3,1.339,1.339,0,0,1,26.1,22.987V20.306A1.318,1.318,0,0,1,28.731,20.306ZM16.144,5.712A10.409,10.409,0,0,1,26.591,16.058v1.41a2.959,2.959,0,0,0-1.365.847c-4.079-1.535-5.663-5.893-5.679-5.937A.83.83,0,0,0,18,12.358a9.107,9.107,0,0,1-5.54,5.53,13.648,13.648,0,0,1-5.118.787A2.965,2.965,0,0,0,5.7,17.468v-1.41A10.409,10.409,0,0,1,16.144,5.712ZM3.556,20.306A1.31,1.31,0,0,1,4.866,19h.018a1.31,1.31,0,0,1,1.309,1.308v2.681A1.31,1.31,0,0,1,4.884,24.3H4.866a1.31,1.31,0,0,1-1.309-1.308ZM1.937,23.369a2.972,2.972,0,0,0,3.478,2.521,11.051,11.051,0,0,0,2.355,4.238H1.937ZM11.964,36.7,7.137,33.4a14.457,14.457,0,0,1,2.489-1.6,11.3,11.3,0,0,0,4.885,1.994Zm8.493,0L17.91,33.793a11.323,11.323,0,0,0,4.879-1.979,14.468,14.468,0,0,1,2.476,1.6ZM15.7,54.357a.9.9,0,0,1-.895-.895v-.594h9.7a2.6,2.6,0,0,0,.043,1.489Z" transform="translate(-0.117 0)" fill="#405c74"/>
  <path id="Union_1" data-name="Union 1" d="M0,3.352A3.351,3.351,0,1,1,3.35,6.7,3.355,3.355,0,0,1,0,3.352Z" transform="translate(36.814 42.404)" fill="#e4ac8f"/>
</svg>
