<svg xmlns="http://www.w3.org/2000/svg" xmlns:xlink="http://www.w3.org/1999/xlink" width="60" height="55.926" viewBox="0 0 60 55.926">
  <defs>
    <clipPath id="clip-path">
      <rect id="Rectangle_10" data-name="Rectangle 10" width="60" height="55.926" fill="#405c74"/>
    </clipPath>
  </defs>
  <g id="Mask_Group_1" data-name="Mask Group 1" clip-path="url(#clip-path)">
    <g id="free-delivery" transform="translate(0 0.927)">
      <g id="Group_12" data-name="Group 12">
        <g id="Group_11" data-name="Group 11">
          <path id="Path_2272" data-name="Path 2272" d="M55.8,35.843l-1.554-6.592a.985.985,0,0,0,.744-.974V27.214a4.075,4.075,0,0,0-3.946-4.185H43.967V20.836a2.005,2.005,0,0,0-1.942-2.059H28.866l8-3.393a1.018,1.018,0,0,0,.523-1.3.922.922,0,0,0-1.221-.555l-6.548,2.778a22.337,22.337,0,0,0,4.721-3.9,4.836,4.836,0,0,0-.826-6.5,4.216,4.216,0,0,0-6.132.876c-1.069,1.487-2.479,5.665-3.392,8.609-.913-2.944-2.323-7.122-3.392-8.609a4.216,4.216,0,0,0-6.132-.876,4.836,4.836,0,0,0-.826,6.5,22.33,22.33,0,0,0,4.721,3.9L11.81,13.534a.922.922,0,0,0-1.221.555,1.017,1.017,0,0,0,.523,1.3l8,3.393H5.95a2.005,2.005,0,0,0-1.942,2.059V38.906a.969.969,0,0,0,.939,1,.969.969,0,0,0,.939-1V20.836a.065.065,0,0,1,.063-.066H42.025a.065.065,0,0,1,.063.066V38.906a.941.941,0,1,0,1.879,0v-1.13H55.055a3.1,3.1,0,0,1,2.919,2.259H55.052a.969.969,0,0,0-.939,1v2.126a3.04,3.04,0,0,0,2.944,3.122h1.065v4.384H55.665a5.844,5.844,0,0,0-11.246,0h-.452V43.157a.941.941,0,1,0-1.879,0v7.507H22.6a6,6,0,0,0-5.623-4.252,6,6,0,0,0-5.623,4.252H5.95a.065.065,0,0,1-.063-.066V48.4H9.958a1,1,0,0,0,0-1.993H.939a1,1,0,0,0,0,1.993H4.008V50.6A2.005,2.005,0,0,0,5.95,52.657h5.075c0,.022,0,.044,0,.066a6.145,6.145,0,0,0,5.95,6.311,6.145,6.145,0,0,0,5.95-6.311c0-.022,0-.044,0-.066H44.093c0,.022,0,.044,0,.066a5.96,5.96,0,1,0,11.9,0c0-.022,0-.044,0-.066h3.071a.969.969,0,0,0,.939-1V41.031A5.169,5.169,0,0,0,55.8,35.843ZM20.262,15.225c-3.706-2.443-4.805-3.566-5.13-4.019A2.759,2.759,0,0,1,15.6,7.495a2.392,2.392,0,0,1,1.511-.541A2.446,2.446,0,0,1,19.1,7.995c.909,1.264,2.332,5.518,3.272,8.583C21.739,16.182,21.01,15.718,20.262,15.225ZM25.6,16.577c.94-3.065,2.363-7.319,3.272-8.583a2.4,2.4,0,0,1,3.5-.5,2.759,2.759,0,0,1,.471,3.711c-.325.453-1.425,1.576-5.13,4.019C26.965,15.718,26.237,16.181,25.6,16.577Zm18.364,8.444h7.077a2.135,2.135,0,0,1,2.067,2.192v.066H43.967Zm0,10.762v-6.51h8.348l1.534,6.51ZM16.973,57.041a4.325,4.325,0,0,1,0-8.636,4.325,4.325,0,0,1,0,8.636Zm33.069,0a4.325,4.325,0,1,1,4.071-4.318A4.2,4.2,0,0,1,50.042,57.041Zm8.079-12.755H57.056a1.1,1.1,0,0,1-1.065-1.129V42.027h2.129v2.259Z" transform="translate(0 -4.961)" fill="#405c74"/>
        </g>
      </g>
      <g id="Group_14" data-name="Group 14" transform="translate(15.031 45.702)">
        <g id="Group_13" data-name="Group 13">
          <path id="Path_2273" data-name="Path 2273" d="M18.476,52.358a2.063,2.063,0,1,0,1.942,2.059A2.005,2.005,0,0,0,18.476,52.358Z" transform="translate(-16.534 -52.358)" fill="#405c74"/>
        </g>
      </g>
      <g id="Group_16" data-name="Group 16" transform="translate(48.1 45.702)">
        <g id="Group_15" data-name="Group 15">
          <path id="Path_2274" data-name="Path 2274" d="M54.852,52.358a2.063,2.063,0,1,0,1.942,2.059A2.005,2.005,0,0,0,54.852,52.358Z" transform="translate(-52.91 -52.358)" fill="#405c74"/>
        </g>
      </g>
      <g id="Group_18" data-name="Group 18" transform="translate(24.05 41.451)">
        <g id="Group_17" data-name="Group 17">
          <path id="Path_2275" data-name="Path 2275" d="M41.424,47.949H27.395a1,1,0,0,0,0,1.993H41.424a1,1,0,0,0,0-1.993Z" transform="translate(-26.455 -47.949)" fill="#405c74"/>
        </g>
      </g>
      <g id="Group_20" data-name="Group 20" transform="translate(2.004 37.199)">
        <g id="Group_19" data-name="Group 19">
          <path id="Path_2276" data-name="Path 2276" d="M15.169,43.54H3.144a1,1,0,0,0,0,1.993H15.169a1,1,0,0,0,0-1.993Z" transform="translate(-2.205 -43.54)" fill="#405c74"/>
        </g>
      </g>
      <g id="Group_22" data-name="Group 22" transform="translate(10.021 22.319)">
        <g id="Group_21" data-name="Group 21">
          <path id="Path_2277" data-name="Path 2277" d="M15.971,28.108H11.962a.969.969,0,0,0-.939,1v8.5a.941.941,0,1,0,1.879,0V34.352h2.067a1,1,0,0,0,0-1.993H12.9V30.1h3.069a1,1,0,0,0,0-1.993Z" transform="translate(-11.023 -28.108)" fill="#e4ac8f"/>
        </g>
      </g>
      <g id="Group_24" data-name="Group 24" transform="translate(17.035 22.319)">
        <g id="Group_23" data-name="Group 23">
          <path id="Path_2278" data-name="Path 2278" d="M24.066,34.819a3.713,3.713,0,0,0,1.563-3.058,3.558,3.558,0,0,0-3.445-3.654H19.679a.969.969,0,0,0-.939,1v8.5a.941.941,0,1,0,1.879,0V35.415h1.564l1.725,2.745a.925.925,0,0,0,.782.444.9.9,0,0,0,.52-.168,1.034,1.034,0,0,0,.261-1.382Zm-1.882-1.4H20.618V30.1h1.566a1.664,1.664,0,0,1,0,3.321Z" transform="translate(-18.739 -28.108)" fill="#e4ac8f"/>
        </g>
      </g>
      <g id="Group_26" data-name="Group 26" transform="translate(25.052 22.319)">
        <g id="Group_25" data-name="Group 25">
          <path id="Path_2279" data-name="Path 2279" d="M32.505,36.611H29.436V34.349c.021,0,.041,0,.063,0h2a1,1,0,0,0,0-1.993h-2c-.021,0-.042,0-.063,0V30.1h3.069a1,1,0,0,0,0-1.993H28.5a.969.969,0,0,0-.939,1v8.5a.969.969,0,0,0,.939,1h4.008a1,1,0,0,0,0-1.993Z" transform="translate(-27.557 -28.108)" fill="#e4ac8f"/>
        </g>
      </g>
      <g id="Group_28" data-name="Group 28" transform="translate(32.067 22.319)">
        <g id="Group_27" data-name="Group 27">
          <path id="Path_2280" data-name="Path 2280" d="M40.221,36.611H37.152V34.352h1.065a1,1,0,0,0,0-1.993H37.152V30.1h3.069a1,1,0,0,0,0-1.993H36.213a.969.969,0,0,0-.939,1v8.5a.969.969,0,0,0,.939,1h4.008a1,1,0,0,0,0-1.993Z" transform="translate(-35.273 -28.108)" fill="#e4ac8f"/>
        </g>
      </g>
    </g>
  </g>
</svg>
