<svg id="money-back" xmlns="http://www.w3.org/2000/svg" width="56" height="56" viewBox="0 0 56 56">
  <path id="Path_2725" data-name="Path 2725" d="M326.831,305.733s4.962-6.013,7.5-8.74c1.357-1.456,1.992-3.41.833-5.029s-3.662-2.28-5.029-.833c-2.6,2.757-8.715,10.1-8.715,10.1" transform="translate(-286.815 -258.899)" fill="#e4ac8f"/>
  <path id="Path_2726" data-name="Path 2726" d="M61.528,288.958c-1.128-1.619-3.564-2.28-4.894-.833-2.535,2.757-8.482,10.1-8.482,10.1l-16.663,1.8v-7.209a14.136,14.136,0,0,0-9.647-3.6c-9.647,0-14.032,5.407-14.032,5.407v9.912h11.4l16.663,7.209,17.54-9.011s4.83-6.013,7.3-8.74C62.038,292.531,62.656,290.577,61.528,288.958Z" transform="translate(-6.964 -256.582)" fill="#fff"/>
  <path id="Path_2727" data-name="Path 2727" d="M61.526,298.53a3.719,3.719,0,0,0-.342-.42c-3.238,4.256-9.527,12.387-9.527,12.387l-15.786,7.292L19.208,310.58H7.807V314.1h11.4l16.663,7.209,17.54-9.011s4.83-6.013,7.3-8.74a8.5,8.5,0,0,0,1.133-1.8A3.363,3.363,0,0,0,61.526,298.53Z" transform="translate(-6.962 -266.154)" fill="#e4ac8f"/>
  <path id="Path_2728" data-name="Path 2728" d="M43.5,310.567s-14.969-6.47-21.277-6.47c-9.912,0-14.417,5.407-14.417,5.407v5.406H32.137l9.218,2.539a3.6,3.6,0,1,0,2.147-6.882Z" transform="translate(-6.963 -271.12)" fill="#fff"/>
  <path id="Path_2729" data-name="Path 2729" d="M233.451,382.318l-6.611-1.821a2.059,2.059,0,0,0-2.606,1.985h0l9.218,2.539a3.6,3.6,0,0,0,4.415-4.794A3.6,3.6,0,0,1,233.451,382.318Z" transform="translate(-199.919 -338.749)" fill="#e4ac8f"/>
  <path id="Path_2730" data-name="Path 2730" d="M55.552,281.8a4.677,4.677,0,0,0-3.415-1.976,3.341,3.341,0,0,0-2.75,1.055c-.153.166-.317.348-.491.543a4.623,4.623,0,0,0-2.793-1.26,3.342,3.342,0,0,0-2.75,1.055c-1.513,1.644-4.192,4.856-6.3,7.413a4.3,4.3,0,0,0-.879-.407c-1.006-.445-14.869-6.523-21.014-6.523-9.926,0-14.487,5.477-14.676,5.711a.859.859,0,0,0,.1,1.187.809.809,0,0,0,1.159-.1A12.9,12.9,0,0,1,5,285.935a20.093,20.093,0,0,1,10.161-2.549c5.9,0,20.255,6.337,20.4,6.4a4.634,4.634,0,0,1,.777.371,2.691,2.691,0,0,1,.6.567,2.8,2.8,0,0,1-.954,4.224,2.717,2.717,0,0,1-1.971.129l-8.979-2.539a.828.828,0,0,0-1.012.59.856.856,0,0,0,.575,1.039l8.966,2.535a4.246,4.246,0,0,0,3.289-.311,4.394,4.394,0,0,0,2.125-2.615,4.579,4.579,0,0,0,.193-1.125l2.408-.26a.817.817,0,0,0,.546-.3c.059-.073,5.964-7.351,8.455-10.057,1.035-1.126,2.884-.328,3.631.745,1.15,1.649-.279,3.449-.744,3.961-2.286,2.518-6.478,7.706-7.231,8.641l-17.06,8.757L20.4,300.344a.823.823,0,0,0-1.078.451.861.861,0,0,0,.439,1.106l9.127,3.945a.81.81,0,0,0,.687-.023l17.555-9.011a.827.827,0,0,0,.267-.218c.048-.06,4.846-6.025,7.277-8.7C56.462,285.922,56.8,283.586,55.552,281.8Zm-14.475,8.951-2.144.232a4.551,4.551,0,0,0-.648-1.23c1.792-2.178,4.7-5.683,6.263-7.376a1.736,1.736,0,0,1,1.442-.529,3,3,0,0,1,1.8.83C45.326,285.535,41.964,289.656,41.077,290.748Z" transform="translate(-0.297 -249.912)" fill="#405c74"/>
  <path id="Path_2731" data-name="Path 2731" d="M16.782,434.433l-3.6-1.518a.844.844,0,0,0-.328-.066H1.136a.845.845,0,0,0,0,1.69H12.679l3.447,1.451a.845.845,0,0,0,.656-1.557Z" transform="translate(-0.291 -385.746)" fill="#405c74"/>
  <path id="Path_2732" data-name="Path 2732" d="M116.285,33.462a.813.813,0,0,0,1.011-.623.857.857,0,0,0-.563-1,15.365,15.365,0,0,1-10.619-14.774c0-8.478,6.6-15.375,14.7-15.375s14.7,6.9,14.7,15.375A15.614,15.614,0,0,1,131.1,28.052V23.6a.809.809,0,1,0-1.616,0V29.9a.83.83,0,0,0,.922.836l6.032-.9a.848.848,0,0,0,.686-.956.823.823,0,0,0-.914-.717l-3.44.514a17.368,17.368,0,0,0,4.362-11.617C137.136,7.655,129.815,0,120.817,0S104.5,7.655,104.5,17.064a17.417,17.417,0,0,0,3.341,10.346A16.44,16.44,0,0,0,116.285,33.462Z" transform="translate(-92.784)" fill="#405c74"/>
  <path id="Path_2733" data-name="Path 2733" d="M220.265,83.648h3.6a.845.845,0,0,0,0-1.69h-1.859V81a.845.845,0,1,0-1.69,0v.957h-.056a3.548,3.548,0,1,0,0,7.1h.9a1.858,1.858,0,1,1,0,3.717h-3.6a.845.845,0,1,0,0,1.69h2.76v.957a.845.845,0,1,0,1.69,0v-1.06a3.548,3.548,0,0,0-.845-6.994h-.9a1.858,1.858,0,1,1,0-3.717Z" transform="translate(-193.12 -71.484)" fill="#e4ac8f"/>
</svg>
