<svg xmlns="http://www.w3.org/2000/svg" width="64.302" height="51.502" viewBox="0 0 64.302 51.502">
  <g id="Group_183" data-name="Group 183" transform="translate(0.15 0.15)">
    <path id="Path_2762" data-name="Path 2762" d="M6320.536-791.211a.625.625,0,0,1-.462-.522.622.622,0,0,1,.117-.462.622.622,0,0,1,.409-.242l25.856,0a.623.623,0,0,1,.461.522.622.622,0,0,1-.117.462.623.623,0,0,1-.382.238Z" transform="translate(-6313.659 830.459)" fill="#405c74" stroke="#405c74" stroke-width="0.3"/>
    <path id="Path_2770" data-name="Path 2770" d="M6320.536-791.211a.625.625,0,0,1-.462-.522.622.622,0,0,1,.117-.462.622.622,0,0,1,.409-.242l25.856,0a.623.623,0,0,1,.461.522.622.622,0,0,1-.117.462.623.623,0,0,1-.382.238Z" transform="translate(-6313.659 836.011)" fill="#405c74" stroke="#405c74" stroke-width="0.3"/>
    <path id="Path_2763" data-name="Path 2763" d="M6320.678-804.638a.612.612,0,0,1-.611-.611v-6.409a.612.612,0,0,1,.611-.611h25.635a.611.611,0,0,1,.611.611v6.409a.611.611,0,0,1-.611.611Zm.61-1.222H6345.7v-5.187h-24.413Z" transform="translate(-6313.659 831.874)" fill="#405c74" stroke="#405c74" stroke-width="0.3"/>
    <path id="Path_2764" data-name="Path 2764" d="M6320.678-797.043a.609.609,0,0,1-.432-.179.61.61,0,0,1-.18-.432.612.612,0,0,1,.61-.61h8.548a.61.61,0,0,1,.434.179.608.608,0,0,1,.178.432.612.612,0,0,1-.611.611Z" transform="translate(-6313.659 830.859)" fill="#405c74" stroke="#405c74" stroke-width="0.3"/>
    <path id="Path_2765" data-name="Path 2765" d="M6334.667-797.043a.612.612,0,0,1-.61-.611.611.611,0,0,1,.61-.611h6.408a.612.612,0,0,1,.61.61.607.607,0,0,1-.178.432.607.607,0,0,1-.432.179Z" transform="translate(-6314.541 830.859)" fill="#405c74" stroke="#405c74" stroke-width="0.3"/>
    <path id="Union_2" data-name="Union 2" d="M0,3.207A3.206,3.206,0,1,1,3.206,6.413,3.209,3.209,0,0,1,0,3.207Z" transform="translate(40.625 38.388)" fill="#e4ac8f" stroke="#e4ac8f" stroke-width="0.3"/>
    <path id="Union_3" data-name="Union 3" d="M0,3.207A3.206,3.206,0,1,1,3.206,6.413,3.209,3.209,0,0,1,0,3.207Z" transform="translate(45.197 38.388)" fill="#e4ac8f" stroke="#e4ac8f" stroke-width="0.3" opacity="0.698"/>
    <path id="Path_2767" data-name="Path 2767" d="M6365.24-806.3a.6.6,0,0,1-.27-.064,17.957,17.957,0,0,1-4.436-3.12,18.09,18.09,0,0,1-5.39-11.774.613.613,0,0,1,.288-.587l9.508-5.853a.621.621,0,0,1,.321-.09.606.606,0,0,1,.32.091l9.509,5.845a.606.606,0,0,1,.287.575,17.761,17.761,0,0,1-9.866,14.912A.608.608,0,0,1,6365.24-806.3ZM6356.4-821l.025.282a16.378,16.378,0,0,0,8.6,13.016l.215.116.216-.115a16.39,16.39,0,0,0,8.635-13.024l.024-.283-8.857-5.443Z" transform="translate(-6315.75 832.792)" fill="#e4ac8f" stroke="#e4ac8f" stroke-width="0.3"/>
    <path id="Path_2768" data-name="Path 2768" d="M6364.778-812.7a.608.608,0,0,1-.432-.178l-2.136-2.138a.613.613,0,0,1,0-.864.606.606,0,0,1,.432-.179.608.608,0,0,1,.432.179l1.7,1.705,4.908-4.909a.607.607,0,0,1,.433-.178.6.6,0,0,1,.433.179.615.615,0,0,1,0,.864l-5.342,5.34a.605.605,0,0,1-.43.179Z" transform="translate(-6316.501 832.33)" fill="#405c74" stroke="#405c74" stroke-width="0.3"/>
    <path id="Path_2769" data-name="Path 2769" d="M6318.005-782.059a4.969,4.969,0,0,1-4.947-4.966v-28.24a4.969,4.969,0,0,1,4.948-4.966h29.908l-.056-.515a30.342,30.342,0,0,1-.169-3.209.622.622,0,0,1,.295-.53l14.063-8.69a.649.649,0,0,1,.328-.087.65.65,0,0,1,.333.091l14.058,8.686a.628.628,0,0,1,.294.529c0,8.574-3.458,13.969-6.358,16.984l-.131.136v19.81a4.969,4.969,0,0,1-4.948,4.966h-47.618Zm0-36.929a3.72,3.72,0,0,0-3.71,3.724v28.241a3.721,3.721,0,0,0,3.71,3.724h47.619a3.721,3.721,0,0,0,3.71-3.724v-18.632l-.757.621a20.116,20.116,0,0,1-6.019,3.4.587.587,0,0,1-.164.022.7.7,0,0,1-.223-.028,20.758,20.758,0,0,1-7.257-4.479,22.5,22.5,0,0,1-6.743-12.486l-.067-.385Zm30.921-4.62.005.266c.132,6.746,2.426,12.233,6.819,16.31a20.4,20.4,0,0,0,6.452,4.09l.171.067.17-.067a20.562,20.562,0,0,0,6.526-4.158c4.347-4.071,6.618-9.537,6.747-16.242l.006-.266-13.448-8.308Z" transform="translate(-6313.058 833.261)" fill="#405c74" stroke="#405c74" stroke-width="0.3"/>
  </g>
</svg>
