<svg id="baseline-favorite_border-24px" xmlns="http://www.w3.org/2000/svg" width="27.442" height="27.442" viewBox="0 0 27.442 27.442">
  <path id="Path_264" data-name="Path 264" d="M0,0H27.442V27.442H0Z" fill="none"/>
  <path id="Path_265" data-name="Path 265" d="M14.5,3a5.163,5.163,0,0,0-3.88,1.8A5.163,5.163,0,0,0,6.742,3,4.7,4.7,0,0,0,2,7.742C2,11,4.932,13.657,9.372,17.692l1.25,1.13,1.25-1.138c4.44-4.027,7.372-6.682,7.372-9.941A4.7,4.7,0,0,0,14.5,3ZM10.708,16.408l-.086.086-.086-.086c-4.1-3.716-6.812-6.174-6.812-8.665A2.947,2.947,0,0,1,6.742,4.724,3.371,3.371,0,0,1,9.82,6.759h1.612A3.349,3.349,0,0,1,14.5,4.724,2.947,2.947,0,0,1,17.52,7.742C17.52,10.234,14.813,12.691,10.708,16.408Z" transform="translate(3.099 3.01)" fill="#405c74"/>
</svg>
