<svg xmlns="http://www.w3.org/2000/svg" width="18.37" height="22.306" viewBox="0 0 18.37 22.306">
  <path id="cart" d="M20.829,6.811H18.787a5.212,5.212,0,0,0-5.1-5.311,5.212,5.212,0,0,0-5.1,5.311H6.541A2.09,2.09,0,0,0,4.5,8.935V21.682a2.09,2.09,0,0,0,2.041,2.124H20.829a2.09,2.09,0,0,0,2.041-2.124V8.935A2.09,2.09,0,0,0,20.829,6.811ZM13.685,3.624a3.122,3.122,0,0,1,3.062,3.187H10.623A3.122,3.122,0,0,1,13.685,3.624Zm7.144,18.057H6.541V8.935H20.829Zm-7.144-8.5A3.122,3.122,0,0,1,10.623,10H8.582a5.212,5.212,0,0,0,5.1,5.311A5.212,5.212,0,0,0,18.787,10H16.746A3.122,3.122,0,0,1,13.685,13.184Z" transform="translate(-4.5 -1.5)" fill="#e4572e"/>
</svg>
