<svg xmlns="http://www.w3.org/2000/svg" width="39.333" height="39.554" viewBox="0 0 39.333 39.554">
  <g id="Group_359" data-name="Group 359" transform="translate(-5.333 -5.363)">
    <g id="Group_358" data-name="Group 358" transform="translate(5.333 5.363)">
      <g id="Group_357" data-name="Group 357">
        <path id="Path_3694" data-name="Path 3694" d="M25.7,44.732a19.534,19.534,0,0,1-9.273-2.343L5.9,45.208l2.786-10.4A19.54,19.54,0,1,1,25.7,44.732ZM25.7,8.3a16.9,16.9,0,0,0-14.46,25.638l.292.482L9.64,41.47l7.146-1.915.474.274A16.894,16.894,0,1,0,25.7,8.3Z" transform="translate(-5.902 -5.654)" fill="#fff"/>
        <ellipse id="Ellipse_11" data-name="Ellipse 11" cx="2.689" cy="2.689" rx="2.689" ry="2.689" transform="translate(9.138 16.858)" fill="#fff"/>
        <ellipse id="Ellipse_12" data-name="Ellipse 12" cx="2.689" cy="2.689" rx="2.689" ry="2.689" transform="translate(17.102 16.858)" fill="#fff"/>
        <ellipse id="Ellipse_13" data-name="Ellipse 13" cx="2.689" cy="2.689" rx="2.689" ry="2.689" transform="translate(25.066 16.858)" fill="#fff"/>
      </g>
    </g>
  </g>
</svg>
