<svg xmlns="http://www.w3.org/2000/svg" width="21" height="19.667" viewBox="0 0 21 19.667">
  <path id="wishlist" d="M17.225,3A6.237,6.237,0,0,0,12.5,5.24,6.237,6.237,0,0,0,7.775,3,5.779,5.779,0,0,0,2,8.895c0,4.051,3.57,7.352,8.978,12.368l1.522,1.4,1.523-1.415C19.43,16.247,23,12.946,23,8.895A5.779,5.779,0,0,0,17.225,3Zm-4.62,16.666-.105.107-.1-.107c-5-4.619-8.3-7.674-8.3-10.771A3.626,3.626,0,0,1,7.775,5.144a4.1,4.1,0,0,1,3.748,2.529h1.964a4.079,4.079,0,0,1,3.738-2.529A3.626,3.626,0,0,1,20.9,8.895C20.9,11.992,17.6,15.047,12.605,19.666Z" transform="translate(-2 -3)" fill="#e4572e"/>
</svg>
